<svg xmlns="http://www.w3.org/2000/svg" version="1.1" xmlnsXlink="http://www.w3.org/1999/xlink" xmlnsSvgjs="http://svgjs.dev/svgjs" width="200" height="150" viewBox="0 0 2000 1500">
    <rect width="2000" height="1500" fill="#000000"></rect>
    <g transform="matrix(0.75,0,0,0.75,249.090909090909,649.7697953018636)">
      <svg viewBox="0 0 396 53" data-background-color="#000000" preserveAspectRatio="xMidYMid meet" height="267" width="2000" xmlns="http://www.w3.org/2000/svg" xmlnsXlink="http://www.w3.org/1999/xlink">
        <g id="tight-bounds" transform="matrix(1,0,0,1,0.2400000000000091,0.02784443945682824)">
          <svg viewBox="0 0 395.52 52.944311121086315" height="52.944311121086315" width="395.52">
            <g>
              <svg viewBox="0 0 480.073921118715 64.26269984028393" height="52.944311121086315" width="395.52">
                <g></g>
                <g transform="matrix(1,0,0,1,84.553921118715,0.1598574622892599)">
                  <svg viewBox="0 0 395.52 63.94298491570541" height="63.94298491570541" width="395.52">
                    <g id="textblocktransform">
                      <svg viewBox="0 0 395.52 63.94298491570541" height="63.94298491570541" width="395.52" id="textblock">
                        <g>
                          <svg viewBox="0 0 395.52 63.94298491570541" height="63.94298491570541" width="395.52">
                            <g transform="matrix(1,0,0,1,0,0)">
                              <svg width="395.52" viewBox="2.8 -35.4 281.72999999999996 45.55" height="63.94298491570541" data-palette-color="url(#51b2c30c-6003-469d-b39a-13020fbdf5e8)"></svg>
                            </g>
                          </svg>
                        </g>
                      </svg>
                    </g>
                  </svg>
                </g>
                <g transform="matrix(1,0,0,1,0,0.1598574622892599)">
                  <svg viewBox="0 0 48.59666853593611 63.94298491570541" height="63.94298491570541" width="48.59666853593611">
                    <g>
                      <svg xmlns="http://www.w3.org/2000/svg" xmlnsXlink="http://www.w3.org/1999/xlink" version="1.1" x="0" y="0" viewBox="17.6 8 60.800000000000004 80" enable-background="new 0 0 96 96" xml:space="preserve" height="63.94298491570541" width="48.59666853593611" class="icon-icon-0" data-fill-palette-color="accent" id="icon-0"></svg>
                    </g>
                  </svg>
                </g>
              </svg>
            </g>
            <defs></defs>
            <mask id="ac06388b-80dd-4bd2-a36b-bd15efe0358f">
              <g id="SvgjsG5915">
                <svg viewBox="0 0 395.52 52.944311121086315" height="52.944311121086315" width="395.52">
                  <g>
                    <svg viewBox="0 0 480.073921118715 64.26269984028393" height="52.944311121086315" width="395.52">
                      <g>
                        <rect width="5.766444368858747" height="64.26269984028393" x="63.69207264289618" y="0" fill="white" opacity="1" stroke-width="0" stroke="transparent" fill-opacity="1" class="rect-yte-0" rx="1%" id="SvgjsRect5914" data-palette-color="url(#51b2c30c-6003-469d-b39a-13020fbdf5e8)"></rect>
                      </g>
                      <g transform="matrix(1,0,0,1,84.553921118715,0.1598574622892599)">
                        <svg viewBox="0 0 395.52 63.94298491570541" height="63.94298491570541" width="395.52">
                          <g id="SvgjsG5913">
                            <svg viewBox="0 0 395.52 63.94298491570541" height="63.94298491570541" width="395.52" id="SvgjsSvg5912">
                              <g>
                                <svg viewBox="0 0 395.52 63.94298491570541" height="63.94298491570541" width="395.52">
                                  <g transform="matrix(1,0,0,1,0,0)">
                                    <svg width="395.52" viewBox="2.8 -35.4 281.72999999999996 45.55" height="63.94298491570541" data-palette-color="url(#51b2c30c-6003-469d-b39a-13020fbdf5e8)">
                                      <path d="M12.95 0.4Q9.95 0.4 7.65-0.88 5.35-2.15 4.08-4.48 2.8-6.8 2.8-9.85L2.8-9.85 6.4-9.85Q6.4-6.75 8.22-4.83 10.05-2.9 13.05-2.9L13.05-2.9 18.6-2.9Q21.55-2.9 23.35-4.23 25.15-5.55 25.15-7.7L25.15-7.7 25.15-10.9Q25.15-12.6 23.83-13.8 22.5-15 20.2-15.35L20.2-15.35 11.2-16.85Q7.4-17.5 5.3-19.55 3.2-21.6 3.2-24.7L3.2-24.7 3.2-27.4Q3.2-31.05 5.93-33.23 8.65-35.4 13.15-35.4L13.15-35.4 18.8-35.4Q23.05-35.4 25.65-32.83 28.25-30.25 28.25-26.05L28.25-26.05 24.65-26.05Q24.65-28.8 23.05-30.45 21.45-32.1 18.8-32.1L18.8-32.1 13.15-32.1Q10.3-32.1 8.6-30.83 6.9-29.55 6.9-27.4L6.9-27.4 6.9-24.7Q6.9-22.95 8.18-21.75 9.45-20.55 11.7-20.15L11.7-20.15 20.65-18.6Q24.55-17.9 26.7-15.93 28.85-13.95 28.85-10.9L28.85-10.9 28.85-7.7Q28.85-4.05 26.05-1.83 23.25 0.4 18.7 0.4L18.7 0.4 12.95 0.4ZM44.95 0Q41 0 39.27-1.7 37.55-3.4 37.55-7.3L37.55-7.3 37.55-21.75 33.15-21.75 33.15-24.95 37.55-24.95 37.55-32.5 41.15-32.5 41.15-24.95 47.65-24.95 47.65-21.75 41.15-21.75 41.15-7.3Q41.15-5.1 42.02-4.15 42.9-3.2 44.95-3.2L44.95-3.2 47.65-3.2 47.65 0 44.95 0ZM61.4 0.4Q57.95 0.4 55.8-1.95 53.65-4.3 53.65-8.1L53.65-8.1 53.65-24.95 57.25-24.95 57.25-8Q57.25-5.65 58.4-4.23 59.55-2.8 61.4-2.8L61.4-2.8 64.5-2.8Q66.8-2.8 68.75-4.65 70.7-6.5 71.25-9.3L71.25-9.3 71.25-24.95 74.85-24.95 74.85 0 71.35 0 71.35-3.8Q70.2-2 68.3-0.8 66.4 0.4 64.6 0.4L64.6 0.4 61.4 0.4ZM90.19 0.4Q87.64 0.4 85.64-0.8 83.64-2 82.54-4.15 81.44-6.3 81.44-9.15L81.44-9.15 81.44-15.15Q81.44-18.15 82.59-20.48 83.74-22.8 85.84-24.08 87.94-25.35 90.64-25.35L90.64-25.35 94.34-25.35Q96.04-25.35 97.62-24.55 99.19-23.75 100.14-22.35L100.14-22.35 100.14-35 103.74-35 103.74 0 100.24 0 100.24-3.7Q99.09-1.85 97.24-0.73 95.39 0.4 93.64 0.4L93.64 0.4 90.19 0.4ZM90.29-2.8L93.54-2.8Q95.14-2.8 96.64-3.83 98.14-4.85 99.09-6.5 100.04-8.15 100.14-9.9L100.14-9.9 100.14-16.2Q99.79-18.85 98.17-20.5 96.54-22.15 94.24-22.15L94.24-22.15 90.74-22.15Q88.19-22.15 86.62-20.23 85.04-18.3 85.04-15.15L85.04-15.15 85.04-9.15Q85.04-6.35 86.52-4.58 87.99-2.8 90.29-2.8L90.29-2.8ZM119.39 10.15Q116.09 10.15 113.94 8.38 111.79 6.6 111.54 3.7L111.54 3.7 115.14 3.7Q115.34 5.2 116.52 6.13 117.69 7.05 119.39 7.05L119.39 7.05 123.29 7.05Q125.89 7.05 127.32 5.33 128.74 3.6 128.74 0.5L128.74 0.5 128.74-4.1Q127.54-2.3 125.72-1.15 123.89 0 122.09 0L122.09 0 118.89 0Q115.39 0 113.22-2.35 111.04-4.7 111.04-8.5L111.04-8.5 111.04-24.95 114.64-24.95 114.64-8.4Q114.64-6.05 115.82-4.63 116.99-3.2 118.89-3.2L118.89-3.2 121.99-3.2Q124.29-3.2 126.24-5.05 128.19-6.9 128.74-9.7L128.74-9.7 128.74-24.95 132.34-24.95 132.34 0.5Q132.34 5.05 129.94 7.6 127.54 10.15 123.29 10.15L123.29 10.15 119.39 10.15ZM140.14 0L140.14-35 143.64-35 163.04-5.85 163.04-35 166.64-35 166.64 0 163.14 0 143.74-28.95 143.74 0 140.14 0ZM182.74 0.4Q178.54 0.4 175.99-2.2 173.44-4.8 173.44-9.05L173.44-9.05 173.44-15.9Q173.44-20.15 176.01-22.75 178.59-25.35 182.84-25.35L182.84-25.35 186.94-25.35Q191.19-25.35 193.76-22.75 196.34-20.15 196.34-15.9L196.34-15.9 196.34-9.05Q196.34-4.8 193.74-2.2 191.14 0.4 186.84 0.4L186.84 0.4 182.74 0.4ZM182.74-2.8L186.84-2.8Q189.54-2.8 191.14-4.53 192.74-6.25 192.74-9.05L192.74-9.05 192.74-15.9Q192.74-18.7 191.14-20.43 189.54-22.15 186.94-22.15L186.94-22.15 182.84-22.15Q180.24-22.15 178.64-20.43 177.04-18.7 177.04-15.9L177.04-15.9 177.04-9.05Q177.04-6.2 178.59-4.5 180.14-2.8 182.74-2.8L182.74-2.8ZM212.43 0Q208.48 0 206.76-1.7 205.03-3.4 205.03-7.3L205.03-7.3 205.03-21.75 200.63-21.75 200.63-24.95 205.03-24.95 205.03-32.5 208.63-32.5 208.63-24.95 215.13-24.95 215.13-21.75 208.63-21.75 208.63-7.3Q208.63-5.1 209.51-4.15 210.38-3.2 212.43-3.2L212.43-3.2 215.13-3.2 215.13 0 212.43 0ZM224.43-28.7Q223.23-28.7 222.48-29.45 221.73-30.2 221.73-31.4L221.73-31.4Q221.73-32.6 222.48-33.35 223.23-34.1 224.43-34.1L224.43-34.1Q225.63-34.1 226.38-33.35 227.13-32.6 227.13-31.4L227.13-31.4Q227.13-30.2 226.38-29.45 225.63-28.7 224.43-28.7L224.43-28.7ZM222.63 0L222.63-24.95 226.23-24.95 226.23 0 222.63 0ZM243.03 0.4Q238.83 0.4 236.28-2.2 233.73-4.8 233.73-9.05L233.73-9.05 233.73-15.9Q233.73-20.15 236.3-22.75 238.88-25.35 243.13-25.35L243.13-25.35 247.23-25.35Q251.48-25.35 254.05-22.75 256.63-20.15 256.63-15.9L256.63-15.9 256.63-9.05Q256.63-4.8 254.03-2.2 251.43 0.4 247.13 0.4L247.13 0.4 243.03 0.4ZM243.03-2.8L247.13-2.8Q249.83-2.8 251.43-4.53 253.03-6.25 253.03-9.05L253.03-9.05 253.03-15.9Q253.03-18.7 251.43-20.43 249.83-22.15 247.23-22.15L247.23-22.15 243.13-22.15Q240.53-22.15 238.93-20.43 237.33-18.7 237.33-15.9L237.33-15.9 237.33-9.05Q237.33-6.2 238.88-4.5 240.43-2.8 243.03-2.8L243.03-2.8ZM263.23 0L263.23-24.95 266.73-24.95 266.73-21.25Q267.88-23.05 269.73-24.2 271.57-25.35 273.43-25.35L273.43-25.35 276.82-25.35Q280.28-25.35 282.4-23 284.53-20.65 284.53-16.85L284.53-16.85 284.53 0 280.93 0 280.93-16.95Q280.93-19.25 279.78-20.7 278.63-22.15 276.73-22.15L276.73-22.15 273.53-22.15Q271.18-22.15 269.25-20.3 267.32-18.45 266.82-15.55L266.82-15.55 266.82 0 263.23 0Z" opacity="1" transform="matrix(1,0,0,1,0,0)" fill="white" class="wordmark-text-0" id="SvgjsPath5911"></path>
                                    </svg>
                                  </g>
                                </svg>
                              </g>
                            </svg>
                          </g>
                        </svg>
                      </g>
                      <g transform="matrix(1,0,0,1,0,0.1598574622892599)">
                        <svg viewBox="0 0 48.59666853593611 63.94298491570541" height="63.94298491570541" width="48.59666853593611">
                          <g>
                            <svg xmlns="http://www.w3.org/2000/svg" xmlnsXlink="http://www.w3.org/1999/xlink" version="1.1" x="0" y="0" viewBox="17.6 8 60.800000000000004 80" enable-background="new 0 0 96 96" xml:space="preserve" height="63.94298491570541" width="48.59666853593611" class="icon-icon-0" data-fill-palette-color="accent" id="SvgjsSvg5910">
                              <g fill="black">
                                <path fill="black" stroke="url(#61105de8-e7b8-4544-ae3f-a1edfe503830)" d="M78.4 38.4C78.4 21.61 64.789 8 48 8 31.21 8 17.6 21.61 17.6 38.4 17.6 50.693 24.901 61.275 35.401 66.064V75.4C35.4 82.358 41.042 88 48 88S60.6 82.358 60.6 75.4V66.064C71.099 61.275 78.4 50.693 78.4 38.4z"></path>
                                <line fill="black" stroke="url(#61105de8-e7b8-4544-ae3f-a1edfe503830)" x1="35.4" y1="75.4" x2="60.6" y2="75.4"></line>
                                <line fill="black" stroke="url(#61105de8-e7b8-4544-ae3f-a1edfe503830)" x1="38.2" y1="67.199" x2="57.8" y2="67.199"></line>
                                <line fill="black" stroke="url(#61105de8-e7b8-4544-ae3f-a1edfe503830)" x1="38.2" y1="71.2" x2="57.8" y2="71.2"></line>
                              </g>
                            </svg>
                          </g>
                        </svg>
                      </g>
                    </svg>
                  </g>
                  <defs>
                    <mask></mask>
                  </defs>
                </svg>
                <rect width="395.52" height="52.944311121086315" fill="black" stroke="none" visibility="hidden"></rect>
              </g>
            </mask>
            <linearGradient x1="0" x2="1" y1="0.548" y2="0.55" id="51b2c30c-6003-469d-b39a-13020fbdf5e8">
              <stop stop-color="#ff6cab" offset="0"></stop>
              <stop stop-color="#7366ff" offset="1"></stop>
            </linearGradient>
            <rect width="395.52" height="52.944311121086315" fill="url(#51b2c30c-6003-469d-b39a-13020fbdf5e8)" mask="url(#ac06388b-80dd-4bd2-a36b-bd15efe0358f)" data-fill-palette-color="primary"></rect>
            <mask id="5901ab19-5170-4690-843e-86e7ad114702">
              <g id="SvgjsG5936">
                <svg viewBox="0 0 395.52 52.944311121086315" height="52.944311121086315" width="395.52">
                  <g>
                    <svg viewBox="0 0 480.073921118715 64.26269984028393" height="52.944311121086315" width="395.52">
                      <g></g>
                      <g transform="matrix(1,0,0,1,84.553921118715,0.1598574622892599)">
                        <svg viewBox="0 0 395.52 63.94298491570541" height="63.94298491570541" width="395.52">
                          <g id="SvgjsG5935">
                            <svg viewBox="0 0 395.52 63.94298491570541" height="63.94298491570541" width="395.52" id="SvgjsSvg5934">
                              <g>
                                <svg viewBox="0 0 395.52 63.94298491570541" height="63.94298491570541" width="395.52">
                                  <g transform="matrix(1,0,0,1,0,0)">
                                    <svg width="395.52" viewBox="2.8 -35.4 281.72999999999996 45.55" height="63.94298491570541" data-palette-color="url(#51b2c30c-6003-469d-b39a-13020fbdf5e8)"></svg>
                                  </g>
                                </svg>
                              </g>
                            </svg>
                          </g>
                        </svg>
                      </g>
                      <g transform="matrix(1,0,0,1,0,0.1598574622892599)">
                        <svg viewBox="0 0 48.59666853593611 63.94298491570541" height="63.94298491570541" width="48.59666853593611">
                          <g>
                            <svg xmlns="http://www.w3.org/2000/svg" xmlnsXlink="http://www.w3.org/1999/xlink" version="1.1" x="0" y="0" viewBox="17.6 8 60.800000000000004 80" enable-background="new 0 0 96 96" xml:space="preserve" height="63.94298491570541" width="48.59666853593611" class="icon-icon-0" data-fill-palette-color="accent" id="SvgjsSvg5933">
                              <g fill="white">
                                <path fill="black" stroke="url(#61105de8-e7b8-4544-ae3f-a1edfe503830)" d="M78.4 38.4C78.4 21.61 64.789 8 48 8 31.21 8 17.6 21.61 17.6 38.4 17.6 50.693 24.901 61.275 35.401 66.064V75.4C35.4 82.358 41.042 88 48 88S60.6 82.358 60.6 75.4V66.064C71.099 61.275 78.4 50.693 78.4 38.4z"></path>
                                <line fill="black" stroke="url(#61105de8-e7b8-4544-ae3f-a1edfe503830)" x1="35.4" y1="75.4" x2="60.6" y2="75.4"></line>
                                <line fill="black" stroke="url(#61105de8-e7b8-4544-ae3f-a1edfe503830)" x1="38.2" y1="67.199" x2="57.8" y2="67.199"></line>
                                <line fill="black" stroke="url(#61105de8-e7b8-4544-ae3f-a1edfe503830)" x1="38.2" y1="71.2" x2="57.8" y2="71.2"></line>
                              </g>
                            </svg>
                          </g>
                        </svg>
                      </g>
                    </svg>
                  </g>
                  <defs>
                    <mask></mask>
                  </defs>
                  <mask>
                    <g id="SvgjsG5932">
                      <svg viewBox="0 0 395.52 52.944311121086315" height="52.944311121086315" width="395.52">
                        <g>
                          <svg viewBox="0 0 480.073921118715 64.26269984028393" height="52.944311121086315" width="395.52">
                            <g>
                              <rect width="5.766444368858747" height="64.26269984028393" x="63.69207264289618" y="0" fill="black" opacity="1" stroke-width="0" stroke="transparent" fill-opacity="1" class="rect-yte-0" rx="1%" id="SvgjsRect5931" data-palette-color="url(#51b2c30c-6003-469d-b39a-13020fbdf5e8)"></rect>
                            </g>
                            <g transform="matrix(1,0,0,1,84.553921118715,0.1598574622892599)">
                              <svg viewBox="0 0 395.52 63.94298491570541" height="63.94298491570541" width="395.52">
                                <g id="SvgjsG5930">
                                  <svg viewBox="0 0 395.52 63.94298491570541" height="63.94298491570541" width="395.52" id="SvgjsSvg5929">
                                    <g>
                                      <svg viewBox="0 0 395.52 63.94298491570541" height="63.94298491570541" width="395.52">
                                        <g transform="matrix(1,0,0,1,0,0)">
                                          <svg width="395.52" viewBox="2.8 -35.4 281.72999999999996 45.55" height="63.94298491570541" data-palette-color="url(#51b2c30c-6003-469d-b39a-13020fbdf5e8)">
                                            <path d="M12.95 0.4Q9.95 0.4 7.65-0.88 5.35-2.15 4.08-4.48 2.8-6.8 2.8-9.85L2.8-9.85 6.4-9.85Q6.4-6.75 8.22-4.83 10.05-2.9 13.05-2.9L13.05-2.9 18.6-2.9Q21.55-2.9 23.35-4.23 25.15-5.55 25.15-7.7L25.15-7.7 25.15-10.9Q25.15-12.6 23.83-13.8 22.5-15 20.2-15.35L20.2-15.35 11.2-16.85Q7.4-17.5 5.3-19.55 3.2-21.6 3.2-24.7L3.2-24.7 3.2-27.4Q3.2-31.05 5.93-33.23 8.65-35.4 13.15-35.4L13.15-35.4 18.8-35.4Q23.05-35.4 25.65-32.83 28.25-30.25 28.25-26.05L28.25-26.05 24.65-26.05Q24.65-28.8 23.05-30.45 21.45-32.1 18.8-32.1L18.8-32.1 13.15-32.1Q10.3-32.1 8.6-30.83 6.9-29.55 6.9-27.4L6.9-27.4 6.9-24.7Q6.9-22.95 8.18-21.75 9.45-20.55 11.7-20.15L11.7-20.15 20.65-18.6Q24.55-17.9 26.7-15.93 28.85-13.95 28.85-10.9L28.85-10.9 28.85-7.7Q28.85-4.05 26.05-1.83 23.25 0.4 18.7 0.4L18.7 0.4 12.95 0.4ZM44.95 0Q41 0 39.27-1.7 37.55-3.4 37.55-7.3L37.55-7.3 37.55-21.75 33.15-21.75 33.15-24.95 37.55-24.95 37.55-32.5 41.15-32.5 41.15-24.95 47.65-24.95 47.65-21.75 41.15-21.75 41.15-7.3Q41.15-5.1 42.02-4.15 42.9-3.2 44.95-3.2L44.95-3.2 47.65-3.2 47.65 0 44.95 0ZM61.4 0.4Q57.95 0.4 55.8-1.95 53.65-4.3 53.65-8.1L53.65-8.1 53.65-24.95 57.25-24.95 57.25-8Q57.25-5.65 58.4-4.23 59.55-2.8 61.4-2.8L61.4-2.8 64.5-2.8Q66.8-2.8 68.75-4.65 70.7-6.5 71.25-9.3L71.25-9.3 71.25-24.95 74.85-24.95 74.85 0 71.35 0 71.35-3.8Q70.2-2 68.3-0.8 66.4 0.4 64.6 0.4L64.6 0.4 61.4 0.4ZM90.19 0.4Q87.64 0.4 85.64-0.8 83.64-2 82.54-4.15 81.44-6.3 81.44-9.15L81.44-9.15 81.44-15.15Q81.44-18.15 82.59-20.48 83.74-22.8 85.84-24.08 87.94-25.35 90.64-25.35L90.64-25.35 94.34-25.35Q96.04-25.35 97.62-24.55 99.19-23.75 100.14-22.35L100.14-22.35 100.14-35 103.74-35 103.74 0 100.24 0 100.24-3.7Q99.09-1.85 97.24-0.73 95.39 0.4 93.64 0.4L93.64 0.4 90.19 0.4ZM90.29-2.8L93.54-2.8Q95.14-2.8 96.64-3.83 98.14-4.85 99.09-6.5 100.04-8.15 100.14-9.9L100.14-9.9 100.14-16.2Q99.79-18.85 98.17-20.5 96.54-22.15 94.24-22.15L94.24-22.15 90.74-22.15Q88.19-22.15 86.62-20.23 85.04-18.3 85.04-15.15L85.04-15.15 85.04-9.15Q85.04-6.35 86.52-4.58 87.99-2.8 90.29-2.8L90.29-2.8ZM119.39 10.15Q116.09 10.15 113.94 8.38 111.79 6.6 111.54 3.7L111.54 3.7 115.14 3.7Q115.34 5.2 116.52 6.13 117.69 7.05 119.39 7.05L119.39 7.05 123.29 7.05Q125.89 7.05 127.32 5.33 128.74 3.6 128.74 0.5L128.74 0.5 128.74-4.1Q127.54-2.3 125.72-1.15 123.89 0 122.09 0L122.09 0 118.89 0Q115.39 0 113.22-2.35 111.04-4.7 111.04-8.5L111.04-8.5 111.04-24.95 114.64-24.95 114.64-8.4Q114.64-6.05 115.82-4.63 116.99-3.2 118.89-3.2L118.89-3.2 121.99-3.2Q124.29-3.2 126.24-5.05 128.19-6.9 128.74-9.7L128.74-9.7 128.74-24.95 132.34-24.95 132.34 0.5Q132.34 5.05 129.94 7.6 127.54 10.15 123.29 10.15L123.29 10.15 119.39 10.15ZM140.14 0L140.14-35 143.64-35 163.04-5.85 163.04-35 166.64-35 166.64 0 163.14 0 143.74-28.95 143.74 0 140.14 0ZM182.74 0.4Q178.54 0.4 175.99-2.2 173.44-4.8 173.44-9.05L173.44-9.05 173.44-15.9Q173.44-20.15 176.01-22.75 178.59-25.35 182.84-25.35L182.84-25.35 186.94-25.35Q191.19-25.35 193.76-22.75 196.34-20.15 196.34-15.9L196.34-15.9 196.34-9.05Q196.34-4.8 193.74-2.2 191.14 0.4 186.84 0.4L186.84 0.4 182.74 0.4ZM182.74-2.8L186.84-2.8Q189.54-2.8 191.14-4.53 192.74-6.25 192.74-9.05L192.74-9.05 192.74-15.9Q192.74-18.7 191.14-20.43 189.54-22.15 186.94-22.15L186.94-22.15 182.84-22.15Q180.24-22.15 178.64-20.43 177.04-18.7 177.04-15.9L177.04-15.9 177.04-9.05Q177.04-6.2 178.59-4.5 180.14-2.8 182.74-2.8L182.74-2.8ZM212.43 0Q208.48 0 206.76-1.7 205.03-3.4 205.03-7.3L205.03-7.3 205.03-21.75 200.63-21.75 200.63-24.95 205.03-24.95 205.03-32.5 208.63-32.5 208.63-24.95 215.13-24.95 215.13-21.75 208.63-21.75 208.63-7.3Q208.63-5.1 209.51-4.15 210.38-3.2 212.43-3.2L212.43-3.2 215.13-3.2 215.13 0 212.43 0ZM224.43-28.7Q223.23-28.7 222.48-29.45 221.73-30.2 221.73-31.4L221.73-31.4Q221.73-32.6 222.48-33.35 223.23-34.1 224.43-34.1L224.43-34.1Q225.63-34.1 226.38-33.35 227.13-32.6 227.13-31.4L227.13-31.4Q227.13-30.2 226.38-29.45 225.63-28.7 224.43-28.7L224.43-28.7ZM222.63 0L222.63-24.95 226.23-24.95 226.23 0 222.63 0ZM243.03 0.4Q238.83 0.4 236.28-2.2 233.73-4.8 233.73-9.05L233.73-9.05 233.73-15.9Q233.73-20.15 236.3-22.75 238.88-25.35 243.13-25.35L243.13-25.35 247.23-25.35Q251.48-25.35 254.05-22.75 256.63-20.15 256.63-15.9L256.63-15.9 256.63-9.05Q256.63-4.8 254.03-2.2 251.43 0.4 247.13 0.4L247.13 0.4 243.03 0.4ZM243.03-2.8L247.13-2.8Q249.83-2.8 251.43-4.53 253.03-6.25 253.03-9.05L253.03-9.05 253.03-15.9Q253.03-18.7 251.43-20.43 249.83-22.15 247.23-22.15L247.23-22.15 243.13-22.15Q240.53-22.15 238.93-20.43 237.33-18.7 237.33-15.9L237.33-15.9 237.33-9.05Q237.33-6.2 238.88-4.5 240.43-2.8 243.03-2.8L243.03-2.8ZM263.23 0L263.23-24.95 266.73-24.95 266.73-21.25Q267.88-23.05 269.73-24.2 271.57-25.35 273.43-25.35L273.43-25.35 276.82-25.35Q280.28-25.35 282.4-23 284.53-20.65 284.53-16.85L284.53-16.85 284.53 0 280.93 0 280.93-16.95Q280.93-19.25 279.78-20.7 278.63-22.15 276.73-22.15L276.73-22.15 273.53-22.15Q271.18-22.15 269.25-20.3 267.32-18.45 266.82-15.55L266.82-15.55 266.82 0 263.23 0Z" opacity="1" transform="matrix(1,0,0,1,0,0)" fill="black" class="wordmark-text-0" id="SvgjsPath5928"></path>
                                          </svg>
                                        </g>
                                      </svg>
                                    </g>
                                  </svg>
                                </g>
                              </svg>
                            </g>
                            <g transform="matrix(1,0,0,1,0,0.1598574622892599)">
                              <svg viewBox="0 0 48.59666853593611 63.94298491570541" height="63.94298491570541" width="48.59666853593611">
                                <g>
                                  <svg xmlns="http://www.w3.org/2000/svg" xmlnsXlink="http://www.w3.org/1999/xlink" version="1.1" x="0" y="0" viewBox="17.6 8 60.800000000000004 80" enable-background="new 0 0 96 96" xml:space="preserve" height="63.94298491570541" width="48.59666853593611" class="icon-icon-0" data-fill-palette-color="accent" id="SvgjsSvg5927">
                                    <g fill="black">
                                      <path fill="black" stroke="url(#61105de8-e7b8-4544-ae3f-a1edfe503830)" d="M78.4 38.4C78.4 21.61 64.789 8 48 8 31.21 8 17.6 21.61 17.6 38.4 17.6 50.693 24.901 61.275 35.401 66.064V75.4C35.4 82.358 41.042 88 48 88S60.6 82.358 60.6 75.4V66.064C71.099 61.275 78.4 50.693 78.4 38.4z"></path>
                                      <line fill="black" stroke="url(#61105de8-e7b8-4544-ae3f-a1edfe503830)" x1="35.4" y1="75.4" x2="60.6" y2="75.4"></line>
                                      <line fill="black" stroke="url(#61105de8-e7b8-4544-ae3f-a1edfe503830)" x1="38.2" y1="67.199" x2="57.8" y2="67.199"></line>
                                      <line fill="black" stroke="url(#61105de8-e7b8-4544-ae3f-a1edfe503830)" x1="38.2" y1="71.2" x2="57.8" y2="71.2"></line>
                                    </g>
                                  </svg>
                                </g>
                              </svg>
                            </g>
                          </svg>
                        </g>
                        <defs>
                          <mask></mask>
                        </defs>
                      </svg>
                      <rect width="395.52" height="52.944311121086315" fill="black" stroke="none" visibility="hidden"></rect>
                    </g>
                  </mask>
                </svg>
                <rect width="395.52" height="52.944311121086315" fill="black" stroke="none" visibility="hidden"></rect>
              </g>
            </mask>
            <linearGradient x1="0" x2="1" y1="0.548" y2="0.55" id="61105de8-e7b8-4544-ae3f-a1edfe503830">
              <stop stop-color="#ff6cab" offset="0"></stop>
              <stop stop-color="#7366ff" offset="1"></stop>
            </linearGradient>
            <rect width="395.52" height="52.944311121086315" fill="url(#61105de8-e7b8-4544-ae3f-a1edfe503830)" mask="url(#5901ab19-5170-4690-843e-86e7ad114702)" data-fill-palette-color="accent"></rect>
          </svg>
          <rect width="395.52" height="52.944311121086315" fill="none" stroke="none" visibility="hidden"></rect>
        </g>
      </svg>
    </g>
  </svg>